<svg width="13" height="13" viewBox="0 0 13 13" fill="none" xmlns="http://www.w3.org/2000/svg">
<path d="M5.83333 11.8333C5.83333 12.0101 5.90357 12.1797 6.0286 12.3047C6.15362 12.4298 6.32319 12.5 6.5 12.5C6.67681 12.5 6.84638 12.4298 6.9714 12.3047C7.09643 12.1797 7.16667 12.0101 7.16667 11.8333V7.16667H11.8333C12.0101 7.16667 12.1797 7.09643 12.3047 6.9714C12.4298 6.84638 12.5 6.67681 12.5 6.5C12.5 6.32319 12.4298 6.15362 12.3047 6.0286C12.1797 5.90357 12.0101 5.83333 11.8333 5.83333H7.16667V1.16667C7.16667 0.989856 7.09643 0.820286 6.9714 0.695262C6.84638 0.570238 6.67681 0.5 6.5 0.5C6.32319 0.5 6.15362 0.570238 6.0286 0.695262C5.90357 0.820286 5.83333 0.989856 5.83333 1.16667V5.83333H1.16667C0.989856 5.83333 0.820286 5.90357 0.695262 6.0286C0.570238 6.15362 0.5 6.32319 0.5 6.5C0.5 6.67681 0.570238 6.84638 0.695262 6.9714C0.820286 7.09643 0.989856 7.16667 1.16667 7.16667H5.83333V11.8333Z" fill="white"/>
</svg>
