<svg width="198" height="200" viewBox="0 0 198 200" fill="none" xmlns="http://www.w3.org/2000/svg">
<g clip-path="url(#clip0_716_463)">
<path d="M150.401 75.2453C154.64 86.1339 156.051 97.9221 154.5 109.506C153.378 117.057 150.983 124.363 147.419 131.112C134.795 155.162 114.471 167.642 87.3666 168.882C85.7195 168.954 84.1987 168.689 84.2047 166.637C84.2107 164.584 85.8397 164.487 87.4147 164.433C116.701 163.452 140.692 144.675 148.333 116.561C149.674 111.627 150.422 106.55 150.563 101.439C150.747 93.0069 149.276 84.621 146.235 76.7563C142.634 67.4916 136.965 59.1745 129.662 52.4411C103.543 28.3607 62.4139 30.3293 38.7115 56.8358C32.8075 63.371 28.3068 71.0509 25.4882 79.3996C22.6696 87.7483 21.5932 96.5878 22.3259 105.37C23.0586 114.153 25.5846 122.691 29.7475 130.455C33.9103 138.22 39.6212 145.045 46.5262 150.509L47.3978 151.213C48.6001 152.164 49.2853 153.302 48.1853 154.675C47.0852 156.047 45.8589 155.668 44.6446 154.717C39.3967 150.688 34.7616 145.916 30.8849 140.551C1.5981 99.6147 23.5452 42.6404 72.7833 32.5627C95.3315 27.9513 115.463 33.833 132.758 49.2505C140.523 56.4701 146.555 65.3573 150.401 75.2453Z" fill="black"/>
<path d="M161.973 57.8592C161.582 58.8104 160.951 60.0084 160.56 60.9595L159.61 63.2773C160.055 64.1863 160.428 64.9087 160.758 65.6492C168.345 82.5838 170.202 100.108 166.169 118.247C155.132 167.901 100.772 195.804 54.3053 175.661C8.57174 155.848 -9.57021 101.053 16.0076 58.1481C31.3423 32.4122 54.6479 19.0716 84.596 17.8796C96.907 17.386 108.695 19.9445 119.924 25.0315C121.415 25.7058 122.93 26.0911 123.741 24.2309C124.457 22.5573 123.332 21.6482 121.86 20.9981C101.626 12.0522 80.857 10.6856 59.8717 17.5245C17.8291 31.3105 -6.70281 73.4452 1.61074 116.959C10.5795 163.915 57.7858 195.009 104.511 184.751C159.262 172.711 188.482 112.413 163.92 62.0612L161.973 57.8592Z" fill="#252525"/>
<path d="M129.842 55.4872C118.06 67.1782 106.342 78.9295 94.6886 90.7409C93.6066 91.8306 93.0475 91.945 91.9114 90.7771C85.1908 83.9141 78.4141 77.0914 71.5814 70.3087C66.592 65.3542 59.3785 64.8003 53.9985 68.8639C47.3861 73.8907 46.8631 83.1737 53.0126 89.3744C65.4359 101.908 77.8892 114.412 90.3725 126.886C93.1016 129.625 93.4683 129.631 96.1493 126.946C112.211 110.828 128.273 94.7102 144.335 78.5924C144.907 77.9904 145.502 77.4726 146.235 76.7863L150.293 72.6144C153.388 69.5742 156.442 66.4799 159.61 63.3073L164.479 58.3106C174.201 48.6905 183.851 39.0082 193.429 29.2636C194.675 28.033 195.666 26.5679 196.344 24.9526C197.022 23.3372 197.375 21.6035 197.381 19.8511C197.388 18.0988 197.049 16.3624 196.383 14.7419C195.717 13.1214 194.738 11.6487 193.501 10.4086C188.254 5.14104 180.03 5.17716 174.554 10.5531C171.067 13.9665 167.653 17.4522 164.209 20.9137C154.314 30.867 144.418 40.8142 134.519 50.7554L129.842 55.4872Z" fill="#252525"/>
<path d="M163.861 175.558C163.849 174.094 164.13 172.642 164.688 171.287C165.245 169.933 166.067 168.704 167.105 167.673C168.144 166.641 169.377 165.828 170.734 165.281C172.091 164.734 173.543 164.464 175.006 164.487C176.449 164.494 177.876 164.785 179.207 165.344C180.538 165.902 181.746 166.718 182.762 167.745C183.777 168.771 184.582 169.988 185.128 171.325C185.674 172.663 185.952 174.095 185.946 175.54C185.948 177.005 185.661 178.456 185.101 179.809C184.541 181.162 183.719 182.39 182.682 183.423C181.645 184.456 180.415 185.274 179.061 185.828C177.707 186.383 176.258 186.663 174.795 186.654C171.881 186.619 169.098 185.434 167.051 183.357C165.004 181.279 163.857 178.477 163.861 175.558Z" fill="black"/>
<path d="M26.5877 8.80752C26.5908 7.64316 26.8238 6.49092 27.2732 5.41709C27.7227 4.34326 28.3798 3.36903 29.2066 2.55047C30.0335 1.73192 31.0138 1.08519 32.0912 0.647492C33.1685 0.209798 34.3217 -0.0102194 35.4843 0.000102936C37.8324 0.0396882 40.0702 1.00498 41.7122 2.68653C43.3541 4.36808 44.2677 6.63022 44.2547 8.9821C44.2185 11.3302 43.2636 13.5703 41.5954 15.2207C39.9272 16.8711 37.6789 17.8 35.334 17.8076C32.9829 17.7743 30.7411 16.8077 29.1011 15.1201C27.4612 13.4326 26.5572 11.1621 26.5877 8.80752Z" fill="black"/>
<path d="M17.6975 191.006C17.7043 193.358 16.7882 195.619 15.1466 197.301C13.5051 198.984 11.2693 199.953 8.92109 200C7.75828 200.008 6.6053 199.787 5.52798 199.348C4.45066 198.91 3.47011 198.263 2.6423 197.445C1.81449 196.628 1.15562 195.654 0.703353 194.582C0.251086 193.509 0.0142625 192.357 0.00639519 191.193C-0.0193645 188.842 0.884596 186.576 2.52096 184.889C4.15733 183.203 6.39326 182.234 8.74076 182.193C11.0889 182.194 13.3429 183.118 15.0178 184.766C16.6928 186.414 17.655 188.655 17.6975 191.006Z" fill="#252525"/>
</g>
<defs>
<clipPath id="clip0_716_463">
<rect width="197.391" height="200" fill="white"/>
</clipPath>
</defs>
</svg>
