<svg width="19" height="18" viewBox="0 0 19 18" fill="none" xmlns="http://www.w3.org/2000/svg">
<path d="M8.14999 3.6H10.85C10.85 3.24196 10.7078 2.89858 10.4546 2.64541C10.2014 2.39223 9.85803 2.25 9.49999 2.25C9.14195 2.25 8.79857 2.39223 8.54539 2.64541C8.29222 2.89858 8.14999 3.24196 8.14999 3.6ZM7.24999 3.6C7.24999 3.00326 7.48704 2.43097 7.909 2.00901C8.33095 1.58705 8.90325 1.35 9.49999 1.35C10.0967 1.35 10.669 1.58705 11.091 2.00901C11.5129 2.43097 11.75 3.00326 11.75 3.6H16.25C16.3693 3.6 16.4838 3.64741 16.5682 3.7318C16.6526 3.81619 16.7 3.93065 16.7 4.05C16.7 4.16935 16.6526 4.28381 16.5682 4.3682C16.4838 4.45259 16.3693 4.5 16.25 4.5H15.3014L14.2268 13.8096C14.1508 14.4677 13.8356 15.0749 13.3411 15.5156C12.8465 15.9564 12.2072 16.2 11.5448 16.2H7.45519C6.79275 16.2 6.15344 15.9564 5.65891 15.5156C5.16438 15.0749 4.84915 14.4677 4.77319 13.8096L3.69859 4.5H2.74999C2.63064 4.5 2.51618 4.45259 2.43179 4.3682C2.3474 4.28381 2.29999 4.16935 2.29999 4.05C2.29999 3.93065 2.3474 3.81619 2.43179 3.7318C2.51618 3.64741 2.63064 3.6 2.74999 3.6H7.24999ZM8.59999 7.2C8.59999 7.08065 8.55258 6.96619 8.46819 6.8818C8.38379 6.79741 8.26934 6.75 8.14999 6.75C8.03064 6.75 7.91618 6.79741 7.83179 6.8818C7.7474 6.96619 7.69999 7.08065 7.69999 7.2V12.6C7.69999 12.7193 7.7474 12.8338 7.83179 12.9182C7.91618 13.0026 8.03064 13.05 8.14999 13.05C8.26934 13.05 8.38379 13.0026 8.46819 12.9182C8.55258 12.8338 8.59999 12.7193 8.59999 12.6V7.2ZM10.85 6.75C10.7306 6.75 10.6162 6.79741 10.5318 6.8818C10.4474 6.96619 10.4 7.08065 10.4 7.2V12.6C10.4 12.7193 10.4474 12.8338 10.5318 12.9182C10.6162 13.0026 10.7306 13.05 10.85 13.05C10.9693 13.05 11.0838 13.0026 11.1682 12.9182C11.2526 12.8338 11.3 12.7193 11.3 12.6V7.2C11.3 7.08065 11.2526 6.96619 11.1682 6.8818C11.0838 6.79741 10.9693 6.75 10.85 6.75Z" fill="#F22E2E"/>
</svg>
