<svg width="250" height="250" viewBox="0 0 250 250" fill="none" xmlns="http://www.w3.org/2000/svg">
<path opacity="0.1" d="M213.406 190.031H191.118V149.505C191.118 146.808 188.932 144.622 186.235 144.622H149.387C150.194 142.132 150.634 139.478 150.634 136.719C150.634 133.96 150.193 131.305 149.387 128.814H198.931C201.631 128.814 203.813 126.627 203.813 123.932V58.5361C203.813 55.8408 201.631 53.6533 198.931 53.6533H99.7266L92.1484 45.2891C91.1768 44.2197 89.4971 44.2197 88.5303 45.2891L80.9521 53.6533H67.6294V40.6528C67.6294 37.9561 65.4434 35.77 62.7466 35.77H36.5942C33.8975 35.77 31.7114 37.9561 31.7114 40.6528V78.5239C31.7114 81.2207 33.8975 83.4067 36.5942 83.4067H58.8823V123.932C58.8823 126.627 61.0698 128.814 63.7651 128.814H100.613C99.8066 131.305 99.3657 133.959 99.3657 136.719C99.3657 139.478 99.8066 142.132 100.613 144.622H51.0693C48.3726 144.622 46.1865 146.808 46.1865 149.505V214.899C46.1865 217.596 48.3726 219.782 51.0693 219.782H150.276L157.854 228.148C158.823 229.218 160.504 229.218 161.473 228.148L169.051 219.782H182.371V232.785C182.371 235.481 184.557 237.667 187.254 237.667H213.406C216.103 237.667 218.289 235.481 218.289 232.785V194.914C218.289 192.217 216.103 190.031 213.406 190.031Z" fill="#252525"/>
<path d="M51.0693 132.904H186.234C188.931 132.904 191.117 135.09 191.117 137.786V203.181C191.117 205.878 188.931 208.064 186.234 208.064H169.05L161.473 216.429C160.503 217.499 158.823 217.499 157.854 216.429L150.276 208.064H51.0693C48.3726 208.064 46.1865 205.878 46.1865 203.181V137.786C46.1865 135.09 48.373 132.904 51.0693 132.904Z" fill="#252525" fill-opacity="0.6"/>
<path d="M191.118 162.536V137.786C191.118 135.089 188.932 132.903 186.235 132.903H51.0693C48.3726 132.903 46.1865 135.089 46.1865 137.786V203.18C46.1865 205.877 48.3726 208.063 51.0693 208.063H150.276L157.854 216.429C158.823 217.499 160.504 217.499 161.473 216.429L169.051 208.063H186.235" stroke="#252525" stroke-width="5" stroke-miterlimit="10" stroke-linecap="round" stroke-linejoin="round"/>
<path d="M203.813 112.213V46.8174C203.813 44.1221 201.631 41.9346 198.931 41.9346H99.7266L92.1484 33.5703C91.1768 32.501 89.4971 32.501 88.5303 33.5703L80.9521 41.9346H63.7646C61.0693 41.9346 58.8818 44.1221 58.8818 46.8174V112.213C58.8818 114.908 61.0693 117.096 63.7646 117.096H198.931C201.631 117.096 203.813 114.908 203.813 112.213Z" fill="#252525" fill-opacity="0.6"/>
<path d="M165.048 117.096H198.931C201.631 117.096 203.813 114.908 203.813 112.213V46.8174C203.813 44.1221 201.631 41.9346 198.931 41.9346H99.7266L92.1484 33.5703C91.1768 32.501 89.4971 32.501 88.5303 33.5703L80.9521 41.9346H63.7646C61.0693 41.9346 58.8818 44.1221 58.8818 46.8174V112.213C58.8818 114.908 61.0693 117.096 63.7646 117.096H129.246" stroke="#252525" stroke-width="5" stroke-miterlimit="10" stroke-linecap="round" stroke-linejoin="round"/>
<path d="M125 150.635C139.158 150.635 150.635 139.158 150.635 125C150.635 110.842 139.158 99.3652 125 99.3652C110.842 99.3652 99.3652 110.842 99.3652 125C99.3652 139.158 110.842 150.635 125 150.635Z" fill="white"/>
<path d="M125 150.635C139.158 150.635 150.635 139.158 150.635 125C150.635 110.842 139.158 99.3652 125 99.3652C110.842 99.3652 99.3652 110.842 99.3652 125C99.3652 139.158 110.842 150.635 125 150.635Z" stroke="#252525" stroke-width="5" stroke-miterlimit="10" stroke-linecap="round" stroke-linejoin="round"/>
<path d="M122.922 140.7C124.529 140.7 125.832 139.397 125.832 137.79C125.832 136.183 124.529 134.88 122.922 134.88C121.315 134.88 120.012 136.183 120.012 137.79C120.012 139.397 121.315 140.7 122.922 140.7Z" fill="#252525" fill-opacity="0.6"/>
<path d="M114.854 117.028C114.854 114.226 117.125 111.955 119.927 111.955H130.072C132.874 111.955 135.145 114.226 135.145 117.028V119.896C135.145 122.698 132.874 124.969 130.072 124.969H125.363C124.015 124.969 122.921 126.062 122.921 127.41V129.736" stroke="#252525" stroke-opacity="0.6" stroke-width="5" stroke-miterlimit="10" stroke-linecap="round" stroke-linejoin="round"/>
<path d="M154.288 98.6195L137.313 81.6444C136.55 80.8822 136.55 79.6459 137.313 78.8837L142.834 73.3617C143.597 72.5995 144.833 72.5995 145.595 73.3617L156.496 84.2626L179.715 61.0438C180.477 60.2816 181.713 60.2816 182.476 61.0438L187.998 66.5658C188.76 67.328 188.76 68.5643 187.998 69.3265L158.705 98.6195C157.485 99.8397 155.507 99.8397 154.288 98.6195Z" fill="white"/>
<path d="M100.904 156.481L95.4512 151.028C94.6982 150.275 93.4771 150.275 92.7241 151.028L81.9375 161.815L71.1509 151.028C70.3979 150.275 69.1768 150.275 68.4238 151.028L62.9712 156.481C62.2183 157.234 62.2183 158.455 62.9712 159.208L73.7573 169.995L62.9717 180.781C62.2188 181.534 62.2187 182.755 62.9722 183.508L68.4282 188.961C69.1812 189.714 70.4019 189.714 71.1548 188.961L81.938 178.177L92.7212 188.961C93.4741 189.714 94.6948 189.714 95.4478 188.961L100.904 183.508C101.657 182.755 101.657 181.534 100.904 180.781L90.1187 169.995L100.905 159.208C101.657 158.455 101.657 157.234 100.904 156.481Z" fill="white"/>
<path d="M86.7212 63.4019H124.591" stroke="white" stroke-width="5" stroke-miterlimit="10" stroke-linecap="round" stroke-linejoin="round"/>
<path d="M117.368 75.3506H124.591" stroke="white" stroke-width="5" stroke-miterlimit="10" stroke-linecap="round" stroke-linejoin="round"/>
<path d="M77.4478 75.3506H104.661" stroke="white" stroke-width="5" stroke-miterlimit="10" stroke-linecap="round" stroke-linejoin="round"/>
<path d="M77.4478 63.4019V63.458" stroke="white" stroke-width="5" stroke-miterlimit="10" stroke-linecap="round" stroke-linejoin="round"/>
<path d="M93.1167 87.2988H124.591" stroke="white" stroke-width="5" stroke-miterlimit="10" stroke-linecap="round" stroke-linejoin="round"/>
<path d="M134.683 163.494H172.552" stroke="white" stroke-width="5" stroke-miterlimit="10" stroke-linecap="round" stroke-linejoin="round"/>
<path d="M132.632 175.442H125.409" stroke="white" stroke-width="5" stroke-miterlimit="10" stroke-linecap="round" stroke-linejoin="round"/>
<path d="M172.552 175.442H145.339" stroke="white" stroke-width="5" stroke-miterlimit="10" stroke-linecap="round" stroke-linejoin="round"/>
<path d="M125.409 163.494V163.55" stroke="white" stroke-width="5" stroke-miterlimit="10" stroke-linecap="round" stroke-linejoin="round"/>
<path d="M125.409 187.391H159.275" stroke="white" stroke-width="5" stroke-miterlimit="10" stroke-linecap="round" stroke-linejoin="round"/>
<path d="M62.7461 71.688H36.5938C33.897 71.688 31.7109 69.502 31.7109 66.8052V40.6528C31.7109 37.9561 33.897 35.77 36.5938 35.77H62.7461C65.4429 35.77 67.6289 37.9561 67.6289 40.6528V66.8052C67.6289 69.502 65.4429 71.688 62.7461 71.688Z" fill="#252525" fill-opacity="0.6"/>
<path d="M62.7461 71.688H36.5938C33.897 71.688 31.7109 69.502 31.7109 66.8052V40.6528C31.7109 37.9561 33.897 35.77 36.5938 35.77H62.7461C65.4429 35.77 67.6289 37.9561 67.6289 40.6528V66.8052C67.6289 69.502 65.4429 71.688 62.7461 71.688Z" stroke="#252525" stroke-width="5" stroke-miterlimit="10" stroke-linecap="round" stroke-linejoin="round"/>
<path d="M62.7461 59.9692H36.5938C33.897 59.9692 31.7109 57.7832 31.7109 55.0864V28.9341C31.7109 26.2373 33.897 24.0513 36.5938 24.0513H62.7461C65.4429 24.0513 67.6289 26.2373 67.6289 28.9341V55.0864C67.6289 57.7832 65.4429 59.9692 62.7461 59.9692Z" fill="white"/>
<path d="M62.7461 59.9692H36.5938C33.897 59.9692 31.7109 57.7832 31.7109 55.0864V28.9341C31.7109 26.2373 33.897 24.0513 36.5938 24.0513H62.7461C65.4429 24.0513 67.6289 26.2373 67.6289 28.9341V55.0864C67.6289 57.7832 65.4429 59.9692 62.7461 59.9692Z" stroke="#252525" stroke-width="5" stroke-miterlimit="10" stroke-linecap="round" stroke-linejoin="round"/>
<path d="M45.0469 49.3496V37.9927C45.0469 36.1582 46.5342 34.6709 48.3687 34.6709H50.9717C52.8062 34.6709 54.2935 36.1582 54.2935 37.9927V49.3496" stroke="#252525" stroke-opacity="0.6" stroke-width="5" stroke-miterlimit="10" stroke-linecap="round" stroke-linejoin="round"/>
<path d="M45.0469 46.2183H54.2935" stroke="#252525" stroke-opacity="0.6" stroke-width="5" stroke-miterlimit="10" stroke-linecap="round" stroke-linejoin="round"/>
<path d="M213.406 225.949H187.254C184.557 225.949 182.371 223.763 182.371 221.066V194.914C182.371 192.217 184.557 190.031 187.254 190.031H213.406C216.103 190.031 218.289 192.217 218.289 194.914V221.066C218.289 223.763 216.103 225.949 213.406 225.949Z" fill="#252525" fill-opacity="0.6"/>
<path d="M213.406 225.949H187.254C184.557 225.949 182.371 223.763 182.371 221.066V194.914C182.371 192.217 184.557 190.031 187.254 190.031H213.406C216.103 190.031 218.289 192.217 218.289 194.914V221.066C218.289 223.763 216.103 225.949 213.406 225.949Z" stroke="#252525" stroke-width="5" stroke-miterlimit="10" stroke-linecap="round" stroke-linejoin="round"/>
<path d="M213.406 214.23H187.254C184.557 214.23 182.371 212.044 182.371 209.347V183.195C182.371 180.498 184.557 178.312 187.254 178.312H213.406C216.103 178.312 218.289 180.498 218.289 183.195V209.347C218.289 212.044 216.103 214.23 213.406 214.23Z" fill="white"/>
<path d="M213.406 214.23H187.254C184.557 214.23 182.371 212.044 182.371 209.347V183.195C182.371 180.498 184.557 178.312 187.254 178.312H213.406C216.103 178.312 218.289 180.498 218.289 183.195V209.347C218.289 212.044 216.103 214.23 213.406 214.23Z" stroke="#252525" stroke-width="5" stroke-miterlimit="10" stroke-linecap="round" stroke-linejoin="round"/>
<path d="M195.707 203.61V188.932H200.559C202.446 188.932 203.977 190.462 203.977 192.35C203.977 194.237 202.446 195.768 200.559 195.768H196.585" stroke="#252525" stroke-opacity="0.6" stroke-width="5" stroke-miterlimit="10" stroke-linecap="round" stroke-linejoin="round"/>
<path d="M195.707 195.768V203.61H201.032C203.197 203.61 204.953 201.854 204.953 199.689C204.953 197.523 203.197 195.768 201.032 195.768H195.707Z" stroke="#252525" stroke-opacity="0.6" stroke-width="5" stroke-miterlimit="10" stroke-linecap="round" stroke-linejoin="round"/>
</svg>
