<svg width="112" height="120" viewBox="0 0 112 120" fill="none" xmlns="http://www.w3.org/2000/svg">
<g clip-path="url(#clip0_755_1723)">
<path d="M90.4405 45.1471C92.9843 51.6803 93.8306 58.7532 92.9003 65.7033C92.2267 70.2342 90.7901 74.6177 88.6516 78.667C81.0774 93.0972 68.883 100.585 52.6201 101.329C51.6319 101.372 50.7194 101.214 50.723 99.9818C50.7266 98.7501 51.704 98.6923 52.649 98.6598C70.2211 98.071 84.6156 86.805 89.1998 69.9367C90.0045 66.9762 90.4537 63.9302 90.5379 60.8632C90.6481 55.8041 89.7658 50.7725 87.941 46.0537C85.7807 40.4949 82.3793 35.5046 77.9972 31.4646C62.3259 17.0163 37.6485 18.1975 23.4271 34.1014C19.8847 38.0225 17.1842 42.6304 15.4931 47.6397C13.8019 52.6489 13.1561 57.9526 13.5957 63.222C14.0353 68.4914 15.551 73.6143 18.0487 78.273C20.5464 82.9317 23.9729 87.027 28.1159 90.3051L28.6389 90.7277C29.3602 91.2984 29.7714 91.9811 29.1114 92.8046C28.4513 93.6282 27.7155 93.4006 26.987 92.8299C23.8382 90.4126 21.0572 87.5496 18.7311 84.3307C1.15906 59.7687 14.3273 25.5841 43.8702 19.5375C57.3991 16.7707 69.4781 20.2997 79.8547 29.5502C84.514 33.8819 88.1331 39.2143 90.4405 45.1471Z" fill="#F22E2E"/>
<path d="M97.3838 34.7155C97.1494 35.2862 96.7707 36.005 96.5362 36.5757L95.9663 37.9664C96.2332 38.5118 96.4569 38.9452 96.6552 39.3895C101.207 49.5503 102.321 60.065 99.9013 70.9481C93.2793 100.74 60.6635 117.482 32.7834 105.396C5.34324 93.5091 -5.54193 60.6321 9.80478 34.8889C19.0056 19.4473 32.989 11.443 50.9578 10.7278C58.3444 10.4316 65.4172 11.9667 72.1546 15.0189C73.0491 15.4235 73.958 15.6546 74.4449 14.5385C74.8741 13.5344 74.1996 12.9889 73.316 12.5988C61.1757 7.23131 48.7144 6.41137 36.1232 10.5147C10.8976 18.7863 -3.82149 44.0671 1.16664 70.1751C6.5479 98.3492 34.8717 117.006 62.9069 110.851C95.7572 103.626 113.29 67.448 98.5524 37.2367L97.3838 34.7155Z" fill="#252525"/>
<path d="M98.5168 105.335C98.51 104.457 98.6787 103.585 99.013 102.773C99.3473 101.96 99.8404 101.223 100.463 100.604C101.086 99.9849 101.827 99.497 102.641 99.1688C103.455 98.8406 104.326 98.6787 105.204 98.6927C106.07 98.6965 106.926 98.8711 107.725 99.2064C108.523 99.5417 109.248 100.031 109.857 100.647C110.467 101.263 110.949 101.993 111.277 102.795C111.605 103.598 111.772 104.457 111.768 105.324C111.769 106.203 111.597 107.074 111.261 107.885C110.925 108.697 110.432 109.434 109.81 110.054C109.188 110.674 108.449 111.164 107.637 111.497C106.825 111.83 105.955 111.998 105.077 111.992C103.329 111.971 101.659 111.261 100.431 110.014C99.2026 108.768 98.5148 107.087 98.5168 105.335Z" fill="#F22E2E"/>
<path d="M16.1528 5.28466C16.1547 4.58604 16.2945 3.8947 16.5641 3.2504C16.8338 2.6061 17.2281 2.02156 17.7242 1.53043C18.2203 1.0393 18.8085 0.651258 19.4549 0.388642C20.1013 0.126025 20.7932 -0.00598515 21.4908 0.000208246C22.8996 0.0239594 24.2423 0.603136 25.2275 1.61206C26.2127 2.62099 26.7608 3.97828 26.753 5.38941C26.7313 6.79827 26.1584 8.14233 25.1574 9.13257C24.1565 10.1228 22.8076 10.6801 21.4006 10.6847C19.9899 10.6647 18.6449 10.0848 17.6609 9.07224C16.6769 8.05971 16.1345 6.69743 16.1528 5.28466Z" fill="#F22E2E"/>
<path d="M10.8186 114.604C10.8227 116.015 10.273 117.371 9.28808 118.381C8.30313 119.39 6.9617 119.972 5.55275 120C4.85506 120.005 4.16328 119.872 3.51689 119.609C2.87049 119.346 2.28216 118.958 1.78548 118.467C1.28879 117.977 0.89347 117.393 0.62211 116.749C0.350749 116.105 0.208655 115.414 0.203935 114.716C0.188479 113.305 0.730855 111.945 1.71268 110.934C2.6945 109.922 4.03605 109.34 5.44455 109.316C6.85346 109.316 8.20581 109.871 9.21079 110.86C10.2158 111.849 10.7931 113.193 10.8186 114.604Z" fill="#252525"/>
<path d="M52.0103 60L66.0103 74M52.0103 60L38.0103 46M52.0103 60L38.0103 74M52.0103 60L66.0103 46" stroke="#F22E2E" stroke-width="5" stroke-linecap="round" stroke-linejoin="round"/>
</g>
<defs>
<clipPath id="clip0_755_1723">
<rect width="111.6" height="120" fill="white" transform="translate(0.200195)"/>
</clipPath>
</defs>
</svg>
