<svg width="14" height="14" viewBox="0 0 14 14" fill="none" xmlns="http://www.w3.org/2000/svg">
<path d="M7 2.1875C11.375 2.1875 14 7 14 7C14 7 11.375 11.8125 7 11.8125C2.625 11.8125 0 7 0 7C0 7 2.625 2.1875 7 2.1875ZM7 3.0625C3.92 3.0625 1.74825 5.90712 1.02812 7C1.74738 8.092 3.91913 10.9375 7 10.9375C10.08 10.9375 12.2517 8.09288 12.9719 7C12.2526 5.908 10.0809 3.0625 7 3.0625ZM7 3.9375C7.81223 3.9375 8.59118 4.26016 9.16551 4.83449C9.73984 5.40882 10.0625 6.18777 10.0625 7C10.0625 7.81223 9.73984 8.59118 9.16551 9.16551C8.59118 9.73984 7.81223 10.0625 7 10.0625C6.18777 10.0625 5.40882 9.73984 4.83449 9.16551C4.26016 8.59118 3.9375 7.81223 3.9375 7C3.9375 6.18777 4.26016 5.40882 4.83449 4.83449C5.40882 4.26016 6.18777 3.9375 7 3.9375ZM7 4.8125C6.42005 4.81319 5.86405 5.04388 5.45396 5.45396C5.04388 5.86405 4.81319 6.42005 4.8125 7C4.8125 8.20575 5.79338 9.1875 7 9.1875C8.20662 9.1875 9.1875 8.20575 9.1875 7C9.1875 5.79425 8.20662 4.8125 7 4.8125Z" fill="black"/>
</svg>
