<svg width="220" height="220" viewBox="0 0 220 220" fill="none" xmlns="http://www.w3.org/2000/svg">
<g clip-path="url(#clip0_148_5249)">
<g style="mix-blend-mode:screen">
<path fill-rule="evenodd" clip-rule="evenodd" d="M124.667 77C122.828 77.009 120.992 77.1241 119.167 77.3447C143.199 80.1236 161.332 100.474 161.332 124.667C161.332 148.859 143.199 169.21 119.167 171.989C136.779 174.117 154.116 166.288 164.165 151.669C174.215 137.05 175.314 118.059 167.019 102.378C158.724 86.6964 142.407 76.919 124.667 77Z" fill="#252525"/>
</g>
<path fill-rule="evenodd" clip-rule="evenodd" d="M213.547 213.547C211.779 215.345 209.358 216.351 206.837 216.333C204.318 216.337 201.902 215.334 200.127 213.547L178.787 192.207C175.081 188.501 175.081 182.493 178.787 178.787C182.492 175.081 188.501 175.081 192.207 178.787L213.547 200.127C217.25 203.833 217.25 209.84 213.547 213.547Z" fill="#FFDC00"/>
<path fill-rule="evenodd" clip-rule="evenodd" d="M172.333 14.6667V47.6668H3.66666V14.6667C3.66666 8.59162 8.59152 3.66675 14.6667 3.66675H161.333C167.408 3.66675 172.333 8.59162 172.333 14.6667Z" fill="#252525" fill-opacity="0.5"/>
<path fill-rule="evenodd" clip-rule="evenodd" d="M172.333 47.6667V84.5167C157.956 67.5198 135.604 59.4841 113.696 63.4364C91.7873 67.3888 73.6518 82.7288 66.1205 103.678C58.5892 124.627 62.8064 148.003 77.1833 165H14.6667C8.59152 165 3.66666 160.075 3.66666 154V47.6667H172.333Z" fill="#F5F5F5"/>
<path fill-rule="evenodd" clip-rule="evenodd" d="M118.877 62.6266C117.154 62.4836 115.43 62.3333 113.667 62.3333C89.3722 62.3188 67.2856 76.4289 57.0873 98.4792C46.8891 120.53 50.4398 146.497 66.1833 165H77.1833C62.1165 147.298 58.1637 122.677 66.9319 101.148C75.7001 79.6187 95.7294 64.7654 118.877 62.6266Z" fill="#CFD8DC"/>
<g style="mix-blend-mode:screen">
<path fill-rule="evenodd" clip-rule="evenodd" d="M150.333 32.9999C154.383 32.9999 157.667 29.7167 157.667 25.6666C157.667 21.6165 154.383 18.3333 150.333 18.3333H121C116.95 18.3333 113.667 21.6165 113.667 25.6666C113.667 29.7167 116.95 32.9999 121 32.9999H150.333Z" fill="#252525"/>
</g>
<path d="M25.6667 32.9999C29.7168 32.9999 33 29.7167 33 25.6666C33 21.6165 29.7168 18.3333 25.6667 18.3333C21.6166 18.3333 18.3333 21.6165 18.3333 25.6666C18.3333 29.7167 21.6166 32.9999 25.6667 32.9999Z" fill="#A4C400"/>
<path d="M55 32.9999C59.0501 32.9999 62.3333 29.7167 62.3333 25.6666C62.3333 21.6165 59.0501 18.3333 55 18.3333C50.9499 18.3333 47.6667 21.6165 47.6667 25.6666C47.6667 29.7167 50.9499 32.9999 55 32.9999Z" fill="#FFDC00"/>
<path d="M124.667 73.3333C96.316 73.3333 73.3333 96.316 73.3333 124.667C73.3333 153.017 96.316 176 124.667 176C153.017 176 176 153.017 176 124.667C175.97 96.3285 153.005 73.3636 124.667 73.3333ZM124.667 168.667C100.366 168.667 80.6667 148.967 80.6667 124.667C80.6667 100.366 100.366 80.6666 124.667 80.6666C148.967 80.6666 168.667 100.366 168.667 124.667C168.64 148.956 148.956 168.64 124.667 168.667Z" fill="#252525"/>
<path d="M194.784 176.187C193.091 174.53 190.967 173.38 188.654 172.869L178.501 162.719C195.607 138.683 194.584 106.19 176 83.2773V14.6667C176 6.56649 169.434 0 161.333 0H14.6667C6.56649 0 0 6.56649 0 14.6667V154C0 162.1 6.56649 168.667 14.6667 168.667H75.614C97.8839 193.695 135.43 197.934 162.719 178.501L172.7 188.5C173.247 190.878 174.45 193.056 176.172 194.784L197.534 216.146C200.856 219.468 205.699 220.766 210.237 219.55C214.775 218.334 218.319 214.789 219.535 210.251C220.751 205.713 219.454 200.871 216.132 197.549L194.784 176.187ZM14.6667 7.33333H161.333C165.383 7.33333 168.667 10.6166 168.667 14.6667V44H7.33333V14.6667C7.33333 10.6166 10.6166 7.33333 14.6667 7.33333ZM14.6667 161.333C10.6166 161.333 7.33333 158.05 7.33333 154V51.3333H168.667V75.614C143.938 53.3839 106.524 53.0509 81.4031 74.8373C56.2823 96.6238 51.3195 133.708 69.828 161.333H14.6667ZM66 124.667C66 92.266 92.266 66 124.667 66C157.067 66 183.333 92.266 183.333 124.667C183.333 157.067 157.067 183.333 124.667 183.333C92.2819 183.295 66.0384 157.051 66 124.667ZM173.892 168.48L179.392 173.98C178.217 174.547 177.142 175.298 176.205 176.205C175.298 177.136 174.535 178.198 173.943 179.355L168.498 173.91C170.397 172.204 172.198 170.391 173.892 168.48ZM210.962 210.962C208.66 213.161 205.035 213.161 202.734 210.962L181.372 189.6C179.858 188.139 179.25 185.975 179.783 183.94C180.315 181.904 181.904 180.315 183.94 179.783C185.975 179.25 188.139 179.858 189.6 181.372L210.962 202.734C212.053 203.824 212.667 205.304 212.667 206.848C212.667 208.391 212.053 209.871 210.962 210.962Z" fill="#252525"/>
<path d="M121 36.6667H150.333C156.408 36.6667 161.333 31.7419 161.333 25.6667C161.333 19.5916 156.408 14.6667 150.333 14.6667H121C114.925 14.6667 110 19.5916 110 25.6667C110 31.7419 114.925 36.6667 121 36.6667ZM121 22.0001H150.333C152.358 22.0001 154 23.6417 154 25.6667C154 27.6918 152.358 29.3334 150.333 29.3334H121C118.975 29.3334 117.333 27.6918 117.333 25.6667C117.333 23.6417 118.975 22.0001 121 22.0001Z" fill="#252525"/>
<path d="M25.6667 36.6667C31.7418 36.6667 36.6667 31.7419 36.6667 25.6667C36.6667 19.5916 31.7418 14.6667 25.6667 14.6667C19.5915 14.6667 14.6667 19.5916 14.6667 25.6667C14.6667 31.7419 19.5915 36.6667 25.6667 36.6667ZM25.6667 22.0001C27.6917 22.0001 29.3333 23.6417 29.3333 25.6667C29.3333 27.6918 27.6917 29.3334 25.6667 29.3334C23.6416 29.3334 22 27.6918 22 25.6667C22 23.6417 23.6416 22.0001 25.6667 22.0001Z" fill="#252525"/>
<path d="M55 36.6667C61.0751 36.6667 66 31.7419 66 25.6667C66 19.5916 61.0751 14.6667 55 14.6667C48.9249 14.6667 44 19.5916 44 25.6667C44 31.7419 48.9249 36.6667 55 36.6667ZM55 22.0001C57.025 22.0001 58.6667 23.6417 58.6667 25.6667C58.6667 27.6918 57.025 29.3334 55 29.3334C52.975 29.3334 51.3333 27.6918 51.3333 25.6667C51.3333 23.6417 52.975 22.0001 55 22.0001Z" fill="#252525"/>
<path fill-rule="evenodd" clip-rule="evenodd" d="M106.333 143C104.308 143 102.667 141.358 102.667 139.333C102.667 137.308 101.025 135.667 99 135.667C96.975 135.667 95.3333 137.308 95.3333 139.333C95.3333 145.409 100.258 150.333 106.333 150.333C108.358 150.333 110 148.692 110 146.667C110 144.642 108.358 143 106.333 143Z" fill="#252525"/>
<path fill-rule="evenodd" clip-rule="evenodd" d="M150.333 135.667C148.308 135.667 146.667 137.308 146.667 139.333C146.667 141.358 145.025 143 143 143C140.975 143 139.333 144.642 139.333 146.667C139.333 148.692 140.975 150.333 143 150.333C149.075 150.333 154 145.409 154 139.333C154 137.308 152.358 135.667 150.333 135.667Z" fill="#252525"/>
<path fill-rule="evenodd" clip-rule="evenodd" d="M143 99C140.975 99 139.333 100.642 139.333 102.667C139.333 104.692 140.975 106.333 143 106.333C145.025 106.333 146.667 107.975 146.667 110C146.667 112.025 148.308 113.667 150.333 113.667C152.358 113.667 154 112.025 154 110C154 103.925 149.075 99 143 99Z" fill="#252525"/>
<path fill-rule="evenodd" clip-rule="evenodd" d="M99 113.667C101.025 113.667 102.667 112.025 102.667 110C102.667 107.975 104.308 106.333 106.333 106.333C108.358 106.333 110 104.692 110 102.667C110 100.642 108.358 99 106.333 99C100.258 99 95.3333 103.925 95.3333 110C95.3333 112.025 96.975 113.667 99 113.667Z" fill="#252525"/>
<path fill-rule="evenodd" clip-rule="evenodd" d="M150.333 121H99C96.975 121 95.3333 122.642 95.3333 124.667C95.3333 126.692 96.975 128.333 99 128.333H150.333C152.358 128.333 154 126.692 154 124.667C154 122.642 152.358 121 150.333 121Z" fill="#252525"/>
</g>
<defs>
<clipPath id="clip0_148_5249">
<rect width="220" height="220" fill="white"/>
</clipPath>
</defs>
</svg>
